<?xml version="1.0" encoding="UTF-8"?>
<svg width="91px" height="54px" viewBox="0 0 91 54" version="1.1" xmlns="http://www.w3.org/2000/svg" xmlns:xlink="http://www.w3.org/1999/xlink">
    <!-- Generator: Sketch 54.1 (76490) - https://sketchapp.com -->
    <title>logo_cic</title>
    <desc>Created with Sketch.</desc>
    <g id="logo_cic" stroke="none" stroke-width="1" fill="none" fill-rule="evenodd">
        <g id="logo_cic-copy-2" transform="translate(3.000000, 2.000000)" fill-rule="nonzero">
            <polygon id="Path" fill="#007C82" points="37.9784173 0.360851878 37.9784173 8.41199874 46.1199634 8.41199874 46.1199634 38.7418043 85 38.7418043 85 0.360851878"></polygon>
            <polygon id="Path" fill="#25378D" points="-2.34479103e-13 38.7418043 47 38.7418043 47 30.9822901 38 31 38 8 38 0.360851878 -2.34479103e-13 0.360851878"></polygon>
            <path d="M28.5110035,26.9790542 L27.7532707,29.8766277 C25.6723751,30.867556 23.386095,31.358541 21.078994,31.309947 C13.813063,31.309947 8.28057554,26.8759377 8.28057554,19.9671326 C8.28057554,11.191919 14.3735777,7.17037569 21.7744474,7.17037569 C24.1817157,7.17385077 26.5540477,7.74271736 28.6978417,8.83055124 C28.3968246,9.97514433 28.1892266,11.1197374 27.9193491,12.2952654 L27.4418736,12.2952654 C26.170071,10.4270677 24.0745679,9.2769438 21.8055872,9.20177062 C16.1693007,9.20177062 13.8857223,14.5535167 13.8857223,19.51342 C13.8857223,25.2673204 16.7401952,29.2991753 21.9716656,29.2991753 C24.2356673,29.2048196 26.3919209,28.3128974 28.0542878,26.7831329 L28.5110035,26.9790542 Z" id="Path" fill="#FFFFFF"></path>
            <path d="M76.1513862,26.97797 L75.4044131,29.8753849 C73.3019382,30.875526 70.9910638,31.3666709 68.6609054,31.3086257 C61.3986664,31.3086257 55.9208633,26.8439259 55.9208633,19.9664322 C55.9208633,11.1916988 62.0107694,7.17037569 69.4078786,7.17037569 C71.8172438,7.17378365 74.1917529,7.7425778 76.3381295,8.83046037 C76.0268907,9.97499081 75.8297728,11.1195212 75.5600325,12.2949849 L75.1139235,12.2949849 C73.8359655,10.4291017 71.739816,9.28021693 69.4701263,9.20165943 C63.8367038,9.20165943 61.5646605,14.5531125 61.5646605,19.5127444 C61.5646605,25.2663299 64.4176829,29.2979641 69.646495,29.2979641 C71.908948,29.2018302 74.0635114,28.3102029 75.7260265,26.7820594 L76.1513862,26.97797 Z" id="Path" fill="#FFFFFF"></path>
            <rect id="Rectangle" fill="#E63812" x="38" y="8" width="9" height="23"></rect>
        </g>
    </g>
</svg>