<?xml version="1.0" encoding="UTF-8"?>
<svg width="55px" height="55px" viewBox="0 0 55 55" version="1.1" xmlns="http://www.w3.org/2000/svg" xmlns:xlink="http://www.w3.org/1999/xlink">
    <!-- Generator: Sketch 52.6 (67491) - http://www.bohemiancoding.com/sketch -->
    <title>media</title>
    <desc>Created with Sketch.</desc>
    <defs>
        <linearGradient x1="50%" y1="0%" x2="50%" y2="100%" id="linearGradient-1">
            <stop stop-color="#FCE293" offset="0%"></stop>
            <stop stop-color="#B8933A" offset="100%"></stop>
        </linearGradient>
    </defs>
    <g id="maquette" stroke="none" stroke-width="1" fill="none" fill-rule="evenodd">
        <g id="1_home_twitch_v2" transform="translate(-934.000000, -1066.000000)" fill="url(#linearGradient-1)">
            <g id="Group-3" transform="translate(934.000000, 1066.000000)">
                <path d="M47.4708628,4 C49.4563234,4 51.065975,5.60872751 51.065975,7.59304834 L51.065975,42.325849 C51.065975,44.0042816 49.9144606,45.4135949 48.3578968,45.8084709 C48.4238072,45.5364772 48.4595186,45.2528659 48.4595186,44.9607511 L48.4595186,10.2279505 C48.4595186,8.24362963 46.8498671,6.63490212 44.8644064,6.63490212 L10.1116548,6.63490212 C9.80547112,6.63490212 9.50827517,6.67334773 9.22462082,6.74532847 C9.60594239,5.17025584 11.0249332,4 12.7181112,4 L47.4708628,4 Z M33.2436016,30.542938 L19.9692489,39.160026 C19.7210663,39.3212341 19.4290233,39.0868476 19.4290233,38.7265846 L19.4290233,21.4924085 C19.4290233,21.1320258 19.7210663,20.897759 19.9692489,21.0588473 L33.2436016,29.6760552 C33.5187475,29.8546297 33.5187475,30.3643635 33.2436016,30.542938 Z M24.9415287,48.6474484 C35.185595,48.6474484 43.490129,40.3476819 43.490129,30.1094966 C43.490129,19.8713113 35.185595,11.5715447 24.9415287,11.5715447 C14.6974625,11.5715447 6.39292849,19.8713113 6.39292849,30.1094966 C6.39292849,40.3476819 14.6974625,48.6474484 24.9415287,48.6474484 Z M42.3478638,9.15004793 C44.3333244,9.15004793 45.942976,10.7587754 45.942976,12.7430963 L45.942976,47.4758969 C45.942976,49.4602177 44.3333244,51.0689452 42.3478638,51.0689452 L7.59511223,51.0689452 C5.60953175,51.0689452 4,49.4602177 4,47.4758969 L4,12.7430963 C4,10.7587754 5.60953175,9.15004793 7.59511223,9.15004793 L42.3478638,9.15004793 Z" id="media"></path>
            </g>
        </g>
    </g>
</svg>