<?xml version="1.0" encoding="UTF-8"?>
<svg width="55px" height="55px" viewBox="0 0 55 55" version="1.1" xmlns="http://www.w3.org/2000/svg" xmlns:xlink="http://www.w3.org/1999/xlink">
    <!-- Generator: Sketch 52.6 (67491) - http://www.bohemiancoding.com/sketch -->
    <title>sword</title>
    <desc>Created with Sketch.</desc>
    <defs>
        <linearGradient x1="50%" y1="0%" x2="50%" y2="100%" id="linearGradient-1">
            <stop stop-color="#FCE293" offset="0%"></stop>
            <stop stop-color="#B8933A" offset="100%"></stop>
        </linearGradient>
    </defs>
    <g id="maquette" stroke="none" stroke-width="1" fill="none" fill-rule="evenodd">
        <g id="1_home_twitch_v2" transform="translate(-527.000000, -1067.000000)" fill="url(#linearGradient-1)">
            <g id="Group" transform="translate(527.000000, 1067.000000)">
                <path d="M7.15045898,45.8363975 C6.51320351,46.6029772 5.60107218,47.59758 4.41744676,48.6386615 C4.74759371,47.838502 5.48905049,46.7671453 7.15045898,45.8363975 M15.9152052,38.010057 C19.3482473,37.7522918 19.7893591,39.7557821 19.8067965,39.8437293 L19.880139,40.2131075 L19.5104674,40.1599128 C18.8889584,40.071326 17.956959,40.5818461 17.5500878,40.8496319 C17.504011,41.0983359 17.3790962,41.797756 17.1777742,43.1149384 C16.9501377,44.6047105 16.2567657,46.0678319 16.0338848,46.5107659 C16.1514019,46.6931631 16.3122481,46.8565849 16.3141504,46.8586104 L16.3912974,46.9366435 L16.3915088,49.8304792 L15.9689967,49.5116307 C15.5043181,49.1608013 14.651368,49.0335178 14.6428079,49.0322385 L14.5370214,49.0169943 L14.4712879,48.9316056 C12.5729429,46.4585306 10.3842927,46.4753738 9.93525482,46.5078877 L5.98131184,50.6164606 C5.69924968,51.8969717 2.72232607,52.6519317 2.3757986,52.7356148 L2.16411987,52.7866774 L2.07386843,52.5867974 C1.72100011,51.8052934 2.73025214,50.2518795 3.039897,49.8051078 C3.16660833,46.5504221 4.14679813,45.7026112 5.624639,44.424552 C5.91631813,44.1722235 6.21814261,43.9111536 6.54120894,43.6076558 C8.35987053,41.8989219 7.40367028,39.1537969 7.39394764,39.1264 L7.30411893,38.8759904 L9.05451069,38.2347754 L9.11305788,38.2401055 C12.0782509,38.5117291 13.4479803,37.9101703 14.074879,37.3582884 C14.6488317,36.8529918 14.6783166,36.3333039 14.6793734,36.3114503 L14.6938517,35.986099 L15.0074068,36.0621067 C15.5513461,36.1989845 15.879168,36.6719805 15.9304232,37.3941069 C15.946381,37.6204243 15.9339107,37.8381069 15.9152052,38.010057 Z M50.588064,48.8518775 C50.2636238,48.0532104 49.5274511,46.9840924 47.8637176,46.0524918 C48.4997049,46.8188583 49.4094056,47.8130346 50.588064,48.8518775 Z M51.9623376,50.0184303 C52.2712427,50.4650955 53.2784868,52.0185094 52.9262526,52.7999068 L52.8360011,53 L52.6242167,52.9487241 C52.2783233,52.865041 49.3074235,52.1098678 49.0258898,50.8294633 L45.0796615,46.7201442 C44.6225919,46.6820871 42.463638,46.6526647 40.5547249,49.1446084 L40.4892028,49.2301037 L40.3832049,49.2454545 C40.3745391,49.2467337 39.5237027,49.3738041 39.0600808,49.7246334 L38.6373575,50.0444414 L38.6373575,47.1498595 L38.7146101,47.0718264 C38.7165124,47.0700141 38.8771473,46.9064856 38.994453,46.7239819 C38.7719948,46.2813677 38.0801024,44.818033 37.8527829,43.3280477 C37.6519893,42.0109719 37.5272859,41.3115519 37.4812091,41.0628479 C37.0746549,40.7951686 36.143818,40.2845419 35.5256908,40.3731287 L35.1560192,40.4264301 L35.229256,40.0570519 C35.2466934,39.9691047 35.6844234,37.9677464 39.1127099,38.2231664 C39.0938987,38.0513229 39.0814283,37.8336403 39.0974918,37.6074295 C39.1486414,36.8853031 39.4759349,36.4123071 40.0189231,36.2752161 L40.339136,36.1946245 L40.3471678,36.527438 C40.3480132,36.5466264 40.3776039,37.067487 40.9519792,37.5733166 C41.5780325,38.1244523 42.9442744,38.7239857 45.901013,38.4534281 L45.9598772,38.4479914 L47.707627,39.0892064 L47.6173755,39.3397226 C47.6075472,39.3667997 46.6533549,42.1122444 48.468212,43.821085 L48.468212,43.8209784 C48.7906442,44.1245828 49.0918346,44.3855461 49.3829853,44.6378745 C50.8576558,45.9160404 51.8359433,46.7638513 51.9623376,50.0184303 Z M35.2744557,38.0091189 L35.1788146,37.998352 C35.167084,37.9971794 34.0007902,37.8676572 33.1075758,37.8676572 L32.8433736,37.8676572 L32.8433736,37.6011506 C32.8433736,37.5790838 32.8461214,37.1112048 33.0588569,36.6852205 C32.6552618,36.0878193 30.9150153,33.5755145 28.0367976,30.2876754 L27.8794389,30.1080499 L28.0399681,29.9313027 C28.6326262,29.2782549 29.2357468,28.62574 29.8326322,27.991774 L30.0110214,27.8022345 L30.2024094,27.9786619 C32.2797777,29.8944182 34.210144,31.4184098 36.0971811,32.6319744 C36.2194538,32.5239859 36.4067202,32.3696253 36.6368931,32.2148382 L37.006142,31.966454 L37.0465121,32.4123729 C37.0478859,32.4269775 37.1987981,33.9261306 38.3369808,36.0947484 L38.3898212,36.1954879 L38.3542068,36.3037962 C38.353467,36.3059283 38.2585656,36.6029233 38.2285523,37.0879654 L38.2136513,37.328461 L37.9751296,37.3377354 C37.4319301,37.3588427 36.089255,37.4612879 35.3545618,37.9552846 L35.2744557,38.0091189 Z M24.7688079,26.5561348 C24.1190821,25.8841116 23.4523416,25.2170988 22.7872921,24.5736452 C9.70675171,11.917245 3.06967786,4.64172039 2.4968877,2.33121445 L2.41509073,2.00138583 L2.8514841,2.08444805 C3.69213501,2.33121445 5.20390244,3.66662591 6.35244182,4.66048246 C9.095071,7.03388397 14.6012542,12.1194702 25.2574761,22.8686423 C25.5040295,23.1173463 25.7701338,23.3888633 26.0543096,23.6788225 C26.3100573,23.939999 26.5807059,24.2160999 26.8649873,24.5042469 L27.0526765,24.6943194 L26.8628737,24.8823665 C26.2590134,25.4808338 25.6954175,26.0305837 25.1400647,26.5630639 L24.9510016,26.7443951 L24.7688079,26.5561348 Z M52.1823123,2.75772101 C51.608571,5.06844016 44.9575473,12.3440714 31.8496356,25.0002584 C26.0570573,30.5931666 22.5749793,35.5946434 21.9804189,36.4720899 C22.1935771,36.8979675 22.1963248,37.3658465 22.1963248,37.3879133 L22.1963248,37.6544199 L21.9321227,37.6544199 C21.037006,37.6544199 19.8679646,37.7839421 19.8563397,37.7852214 L19.7608042,37.7958816 L19.6809095,37.7421539 C18.944631,37.2481572 17.5988912,37.145712 17.0545292,37.1244981 L16.8159019,37.1152237 L16.8010009,36.8749413 C16.7707762,36.3897926 16.6758748,36.0930108 16.6749236,36.0899193 L16.6398376,35.9822507 L16.692361,35.8812979 C17.8328686,33.7127867 17.9840979,32.2136336 17.9855774,32.1987092 L18.02711,31.755029 L18.394985,32.0016009 C18.625792,32.1564946 18.8135868,32.3110684 18.9361766,32.4190569 C22.935985,29.8517452 26.3282344,26.3962201 28.5833578,24.0988263 C28.865737,23.8112123 29.1301505,23.5418274 29.3755414,23.2948291 C40.0539563,12.545657 45.5716587,7.46017732 48.3199946,5.08677582 C49.4707533,4.09302587 51.0560005,2.71008315 51.8474941,2.51209855 L52.2643206,2.42778579 L52.1823123,2.75772101 Z" id="Fill-11"></path>
            </g>
        </g>
    </g>
</svg>